<svg xmlns="http://www.w3.org/2000/svg" viewBox="0 0 173.64706 173.64706">
    <defs>
        <style>.DoSvg-1{fill:#f57e20;}.DoSvg-2{fill:none;stroke:#fff;stroke-miterlimit:10;stroke-width:2.81853px;}.DoSvg-3{fill:#fff;}</style>
    </defs>
    <g id="Layer_2" data-name="Layer 2">
        <circle class="DoSvg-1" cx="86.82353" cy="86.82353" r="84.93679"/>
        <g id="Cog">
            <polyline class="DoSvg-2" points="66.379 78.047 65.444 79.559 56.31 83.731 56.31 89.557 65.013 93.153 66.883 97.684 63.143 106.531 67.242 110.415 76.233 106.747 80.549 108.473 84.073 117.607 90.115 117.607 93.423 108.833 97.811 106.675 106.514 110.343 110.685 106.891 107.233 97.397 107.952 95.167"/>
            <polyline class="DoSvg-2" points="65.93 72.78 63.143 66.81 67.29 62.729 76.257 66.708 80.165 65.006 84.073 56.04 89.863 56.04 93.687 64.671 97.739 66.253 106.753 63.124 110.685 67.116 107.137 75.747 108.959 79.679 117.686 83.515 117.686 89.461 114.138 90.899"/>
            <path class="DoSvg-3" d="M98.05728,87.96925a11.01076,11.01076,0,0,1-16.31117,8.3146l-.30974.20378-1.48358,2.5677a14.31058,14.31058,0,0,0,21.40584-10.9597ZM87.122,75.6605a11.0206,11.0206,0,0,1,9.92855,6.24l2.84894-1.67109A14.309,14.309,0,1,0,75.37978,94.84917l2.76746-1.79742A11.0143,11.0143,0,0,1,87.122,75.6605Z"/>
        </g>
    </g>
</svg>