<svg xmlns="http://www.w3.org/2000/svg" viewBox="0 0 173.64706 173.64706">
    <defs>
        <style>.PlanSvg-1{fill:#f7931e;}.PlanSvg-2{fill:#fff;opacity:0.5;}.PlanSvg-3,.PlanSvg-4{fill:none;stroke:#fff;stroke-miterlimit:10;}.PlanSvg-3{stroke-width:1.62353px;}.PlanSvg-4{stroke-width:1.94824px;}</style>
    </defs>
    <g id="Layer_2" data-name="Layer 2">
        <circle class="PlanSvg-1" cx="86.82353" cy="86.82353" r="84.93679"/>
        <g id="Chess">
            <path class="PlanSvg-2" d="M85.03592,115.54727s6.441-9.69895,4.06017-11.33407c0,0,.1785-4.28665-2.47114-4.19827,0,0-3.047-26.47951,7.00656-34.98237s9.16973-5.3481,9.16973-5.3481S93.63133,71.20155,92.29451,76.15109s-.62974,23.95223-.62974,23.95223,7.86624,2.03285,0,15.55569Z"/>
            <path class="PlanSvg-2" d="M69.07236,80.61324s2.51987,19.82026-5.94689,27.99583v6.9382h4.93894v-6.9382s4.78775-2.91669,3.9058-27.99583Z"/>
            <g id="Torre_traco" data-name="Torre traco">
                <polyline class="PlanSvg-3" points="71.071 115.659 60.598 115.659 60.598 108.411 84.152 108.411"/>
                <path class="PlanSvg-3" d="M60.86273,107.92536s6.73932-2.93879,6.73932-27.99583"/>
                <polyline class="PlanSvg-3" points="84.373 79.93 62.454 79.93 62.454 62.363 67.889 62.363 67.889 66.694 74.43 66.694 74.43 62.363 80.086 62.363 80.075 66.76 86.66 66.722 86.66 62.363 90.488 62.363"/>
                <line class="PlanSvg-3" x1="74.61206" y1="115.65901" x2="80.04772" y2="115.65901"/>
            </g>
            <g id="Cavalo_traco" data-name="Cavalo traco">
                <polyline class="PlanSvg-3" points="83.489 115.659 114.733 115.639 118.556 115.637"/>
                <path class="PlanSvg-3" d="M117.22837,115.63692a12.66488,12.66488,0,0,1-5.70081-10.805"/>
                <path class="PlanSvg-3" d="M83.77391,115.54727a12.66488,12.66488,0,0,0,5.70081-10.805"/>
                <line class="PlanSvg-4" x1="85.57214" y1="104.2132" x2="114.20286" y2="104.2132"/>
                <path class="PlanSvg-3" d="M111.19778,103.99224l3.447-3.97731-11.40162-20.461a8.74442,8.74442,0,0,1,9.67812,2.73993l3.226-3.62377-.17677-3.447-1.67931-1.67931-.97223-.97223"/>
                <path class="PlanSvg-3" d="M108.944,66.73812s-2.69573-4.41923-7.07077-3.49119l1.37-5.25888S87.15336,65.19139,86.625,80.92386v19.09107s2.65344.26516,2.47667,3.53539"/>
                <line class="PlanSvg-3" x1="109.9162" y1="67.88712" x2="112.25839" y2="71.14631"/>
                <line class="PlanSvg-3" x1="91.06818" y1="94.77815" x2="86.892" y2="94.77815"/>
                <line class="PlanSvg-3" x1="91.06818" y1="90.73455" x2="86.892" y2="90.73455"/>
                <line class="PlanSvg-3" x1="91.06818" y1="86.55838" x2="86.892" y2="86.55838"/>
                <line class="PlanSvg-3" x1="91.06818" y1="82.71364" x2="86.892" y2="82.71364"/>
                <line class="PlanSvg-3" x1="91.06818" y1="79.43237" x2="86.892" y2="79.43237"/>
                <line class="PlanSvg-3" x1="91.66477" y1="76.15109" x2="87.4886" y2="76.15109"/>
                <line class="PlanSvg-3" x1="92.17851" y1="73.18468" x2="88.00233" y2="73.18468"/>
                <line class="PlanSvg-3" x1="93.27227" y1="73.18468" x2="89.09609" y2="73.18468"/>
                <line class="PlanSvg-3" x1="94.3826" y1="69.83711" x2="90.20643" y2="69.83711"/>
            </g>
        </g>
    </g>
</svg>