<svg id="Layer_1" data-name="Layer 1" xmlns="http://www.w3.org/2000/svg" viewBox="0 0 249.98618 180">
    <defs>
        <style>.SVG_Brasil1{fill:#079c49;}.SVG_Brasil2{fill:#fedf00;}.SVG_Brasil3{fill:#253370;}</style>
    </defs>
    <path class="SVG_Brasil1" d="M244.38879.04865Q125.01932.04672,5.65.00787C3.278.00641,1.351.44971-.01263,2.4801V177.28131c1.36358,2.03027,3.29046,2.47369,5.66241,2.47223q119.36939-.07215,238.73883-.04083c4.49371-.00006,5.5838-1.09662,5.58392-5.61426q.00193-84.21771,0-168.43536C249.97247,1.14532,248.88232.04871,244.38879.04865Z" />
    <path class="SVG_Brasil2" d="M223.28278,85.535Q176.148,55.37658,129.04523,25.16858c-2.86359-1.84259-5.07471-1.9212-7.96155-.05316C101.2959,37.91968,81.41443,50.57916,61.56335,63.28564Q43.90256,74.59012,26.23218,85.87976c-1.96717,1.25171-3.44593,2.808-2.50586,5.1604a7.4923,7.4923,0,0,0,2.96441,3.04022q47.29853,30.35467,94.62592,60.66443c2.74133,1.763,4.8761,1.64032,7.54718-.08728,17.53857-11.34326,35.15607-22.56463,52.74805-33.82544q21.04889-13.47363,42.07251-26.98639a15.562,15.562,0,0,0,2.82837-2.83374C226.68573,87.5882,224.93811,86.59412,223.28278,85.535Z" />
    <path class="SVG_Brasil3" d="M125.05029,54.7359a35.14483,35.14483,0,1,0,35.07489,35.03162A35.12319,35.12319,0,0,0,125.05029,54.7359Z" />
</svg>