<svg id="Layer_1" data-name="Layer 1" xmlns="http://www.w3.org/2000/svg" viewBox="0 0 248.2212 161.71802">
    <defs>
        <style>.SVG_Spain1{fill:#f8bc16;}.SVG_Spain2{fill:#ad1f24;}.SVG_Spain3{fill:#000;}.SVG_Spain4{fill:#231f20;}</style>
    </defs>
    <rect class="SVG_Spain1" x="7.38409" y="38.57153" width="233.39923" height="85.72852" />
    <path class="SVG_Spain2" d="M238.39068,131.69226H32.94879c-.55981.00745-1.12641.02753-1.682,0H13.47807c-1.90462.00964-3.83464.00086-5.93611,0H7.2823v-.0003H7.27225c0,5.93042-.00073,11.632.00025,17.33355.00086,5.239,1.12965,6.354,6.44087,6.35407q110.75273.00073,221.50539-.00257a19.76263,19.76263,0,0,0,2.66838-.08306c2.21161-.30274,3.68843-1.64539,3.73386-3.81037.13666-6.50781.04929-13.02032.04929-19.79132Z" />
    <path class="SVG_Spain2" d="M241.35539,31.17932h.3149v.00043l.03477.00006c0-5.953.00056-11.5838-.00018-17.2146-.00067-5.40466-1.083-6.47327-6.56222-6.47333q-110.63114-.00045-221.26226.0008c-.81029,0-1.62652-.04487-2.42983.03393-2.53729.2489-4.10374,1.70343-4.13876,4.214C7.223,18.09979,7.2823,24.461,7.2823,31.17932" />
</svg>