<svg xmlns="http://www.w3.org/2000/svg" viewBox="0 0 176.44835 107.73697">
    <defs>
        <style>.SVG_Us1{fill:#b41e44;}.SVG_Us2{fill:#fff;}.SVG_Us3{fill:#1b3360;}</style>
    </defs>
    <g id="Layer_1" data-name="Layer 1">
        <path class="SVG_Us1" d="M172.36148.0302h-.7569V0h-80.208V.02781h-.01684V6.3705h.01684v5.50142h85.05085V4.27335C176.44729,1.009,175.50778.03033,172.36148.0302Z" />
        <path class="SVG_Us2" d="M176.44742,11.87192V23.83236H91.39165V11.87192Z" />
        <path class="SVG_Us1" d="M176.44742,23.83237V35.79281H91.39165V23.83237Z" />
        <path class="SVG_Us2" d="M176.44742,35.79282V47.75326H91.39165V35.79282Z" />
        <path class="SVG_Us1" d="M176.44742,47.75329v11.9604H91.39165V47.75329Z" />
        <path class="SVG_Us2" d="M176.44742,59.71369v11.9604H0V59.71369Z" />
        <path class="SVG_Us1" d="M176.44742,71.67409v11.9604H0V71.67409Z" />
        <path class="SVG_Us2" d="M176.44742,83.63449v11.9604H0V83.63449Z" />
        <path class="SVG_Us1" d="M176.44742,95.59489v11.9604H0V95.59489Z" />
    </g>
    <g id="Layer_2" data-name="Layer 2">
        <path class="SVG_Us3" d="M4.18954,0C2.34915-.00114.94577.47524,0,2.07973v57.634h91.3797V.027Q47.7846.02307,4.18954,0Z" />
    </g>
</svg>