<?xml version="1.0" encoding="utf-8"?>
<!-- Generator: Adobe Illustrator 25.2.1, SVG Export Plug-In . SVG Version: 6.00 Build 0)  -->
<svg version="1.1" id="Layer_1" xmlns="http://www.w3.org/2000/svg" xmlns:xlink="http://www.w3.org/1999/xlink" x="0px" y="0px"
	 viewBox="0 0 300 300" style="enable-background:new 0 0 300 300;" xml:space="preserve">
	<style type="text/css">
	.st0{fill:#FF5B00; }
</style>
	<g id="Logo">
		<path class="st0" d="M74,224.3c-17.5,0-33.3-5.9-47.1-17.5c-15.6-13.2-24.4-30.1-26.1-50.4s4.1-38.5,17.4-54.2
		c13.2-15.6,30.1-24.4,50.4-26.1c2.4-0.2,4.8-0.3,7.1-0.3c17.6,0,33.4,5.9,47.1,17.4c2.2,1.8,4,4.1,5.3,6.6
		c2.6,5.1,3.1,10.9,1.4,16.3c-0.8,2.7-2.2,5.2-4.1,7.4c-1.9,2.2-4.1,4-6.7,5.3c-2.5,1.2-5.2,2-7.9,2.2c-0.6,0.1-1.2,0.1-1.8,0.1
		c-2.2,0-4.4-0.3-6.5-1c-2.7-0.8-5.2-2.2-7.4-4.1c-5.5-4.8-12.6-7.4-19.8-7.4c-1,0-2.1,0.1-3.1,0.2c-8.2,0.6-15.9,4.6-21.1,11
		c-5.4,6.3-8.1,14.8-7.4,23.1c1.5,16.2,14.8,28.5,31.1,28.5c0.9,0,1.9,0,2.8-0.1c8.4-0.4,16.2-4.5,21.4-11l46.5-55.1
		c0.5-0.8,1.1-1.5,1.6-2.2c13.2-15.6,30.1-24.4,50.4-26.1c2.4-0.2,4.8-0.3,7.1-0.3c17.6,0,33.4,5.9,47.1,17.4l40.3,34
		c2.2,1.8,4,4.1,5.3,6.6s2.1,5.2,2.3,8c0.2,2.8-0.1,5.6-0.9,8.3s-2.2,5.2-4.1,7.4s-4.1,4-6.7,5.3c-2.5,1.2-5.2,2-7.9,2.2
		c-0.6,0.1-1.2,0.1-1.8,0.1c-2.2,0-4.4-0.3-6.5-1c-2.7-0.8-5.2-2.2-7.4-4.1l-40.3-34c-5.5-4.8-12.5-7.4-19.8-7.4
		c-1,0-2.1,0.1-3.1,0.2c-7.1,0.5-13.8,3.5-18.8,8.5l-50.4,59.7c-13.2,15.6-30.2,24.4-50.7,26.1C78.6,224.2,76.2,224.3,74,224.3z"/>
	</g>
</svg>