<svg id="Layer_1" data-name="Layer 1" xmlns="http://www.w3.org/2000/svg" viewBox="0 0 299.93118 190.67974">
   
    <g id="Be">
        <path  d="M110.65,183.48a51.04793,51.04793,0,0,0,21.01885-9.33375,51.59145,51.59145,0,0,0,13.175-14.62907,54.48006,54.48006,0,0,0,8.27625-29.67037q0-16.017-7.24228-27.25069Q138.6255,91.36474,124.3874,86.18256q9.37126-4.78562,14.19442-10.59624,8.6-10.33244,8.61456-27.38624,0-16.52785-8.54511-28.39444Q124.4675.51195,90.45119,0H.54275V186.00838H84.36386A128.69312,128.69312,0,0,0,110.65,183.48ZM37.64584,32.304H78.11411q13.36713,0,21.98337,2.90811,10.0014,4.1555,9.99692,17.15742,0,11.73888-7.566,16.34414-7.543,4.60415-19.67345,4.60526H37.64584Zm0,121.39807V104.11742H83.42623c8.0018.08066,14.1821,1.127,18.59692,3.15009q11.84306,5.41909,11.84754,19.93,0,17.15967-12.22506,23.22907c-4.48427,2.18893-10.77436,3.27555-18.82992,3.27555Z" />
        <path  d="M184.6221,173.75308a74.93073,74.93073,0,0,0,48.44541,16.92666q33.27919,0,51.74449-20.06554,11.90019-12.63282,13.34416-24.859H261.43394a30.04885,30.04885,0,0,1-7.40471,9.45474q-7.6842,6.31977-19.9692,6.317-11.59436,0-19.82244-5.17658-13.552-8.33115-14.3871-29.03185H300.027q.26884-17.80827-1.18185-27.29325A67.47743,67.47743,0,0,0,287.88367,71.5927a55.81142,55.81142,0,0,0-23.7735-20.3512q-14.3703-6.44074-32.34548-6.438-30.22266,0-49.18029,19.07189-18.95091,19.0551-18.94979,54.80384Q163.63461,156.82643,184.6221,173.75308Zm25.69132-91.44091q7.63716-7.84721,21.46247-7.8528,12.737,0,21.3426,7.40471,8.6,7.41535,9.58019,21.7358H200.73323Q202.69252,90.17394,210.31342,82.31217Z" />
        <rect  x="189.01003" y="10.69258" width="80.83347" height="18.77167" />
    </g>
</svg>