<svg  data-name="Layer 1" xmlns="http://www.w3.org/2000/svg" viewBox="0 0 300 300">
    <g id="IG">
        <path  d="M149.9992,27.02688c40.05255,0,44.79522.15228,60.61182.87447,14.62257.66681,22.56667,3.11141,27.855,5.16722a46.44323,46.44323,0,0,1,17.24483,11.21929,46.464,46.464,0,0,1,11.22044,17.246c2.05585,5.28835,4.49695,13.229,5.16722,27.855.71876,15.8166.87447,20.55928.87447,60.61185,0,40.05374-.15571,44.79641-.87447,60.61186-.67027,14.62719-3.11137,22.56779-5.16722,27.85268A49.66643,49.66643,0,0,1,238.466,266.934c-5.28832,2.05582-13.23242,4.50041-27.855,5.16722-15.8166.71873-20.55693.871-60.61182.871-40.05722,0-44.7964-.15228-60.613-.871-14.62375-.66681-22.56779-3.1114-27.85153-5.16722a46.50345,46.50345,0,0,1-17.24944-11.21929,46.5061,46.5061,0,0,1-11.22044-17.24944c-2.05235-5.28489-4.49579-13.22549-5.16607-27.85268-.71988-15.81545-.87216-20.55812-.87216-60.61186,0-40.05257.15228-44.79525.87216-60.61185.67028-14.626,3.11372-22.56664,5.16607-27.855a46.521,46.521,0,0,1,11.22044-17.246A46.4607,46.4607,0,0,1,61.53466,33.06857c5.28374-2.05581,13.22778-4.50041,27.85153-5.16722,15.81661-.72219,20.56271-.87447,60.613-.87447m0-27.02666c-40.739,0-45.84623.1742-61.84629.90215C72.18748,1.63148,61.28548,4.16952,51.7436,7.87506A73.50212,73.50212,0,0,0,25.17378,25.17757,73.48847,73.48847,0,0,0,7.87589,51.74624c-3.709,9.54187-6.247,20.44391-6.97269,36.40933-.73142,16-.90331,21.10727-.90331,61.84511,0,40.739.17189,45.84624.90331,61.84627.72565,15.96543,3.26369,26.86746,6.97269,36.40934A73.48844,73.48844,0,0,0,25.17378,274.825,73.51706,73.51706,0,0,0,51.7436,292.12746c9.54188,3.70554,20.44388,6.24358,36.40931,6.97154,16.00006.72911,21.10726.901,61.84629.901,40.73666,0,45.84389-.17189,61.84393-.901,15.96657-.728,26.86861-3.266,36.41049-6.97154a76.71294,76.71294,0,0,0,43.87117-43.87117c3.70554-9.54188,6.24358-20.44391,6.97272-36.40934.72792-16,.89985-21.10726.89985-61.84627,0-40.73784-.17193-45.84507-.89985-61.84511-.72914-15.96542-3.26718-26.86746-6.97272-36.40933a73.53237,73.53237,0,0,0-17.30251-26.56867A73.49769,73.49769,0,0,0,248.25362,7.87506C238.71174,4.16952,227.8097,1.63148,211.84313.90237c-16-.72795-21.10727-.90215-61.84393-.90215"/>
        <path  d="M149.9992,72.97463a77.02663,77.02663,0,1,0,77.026,77.026,77.02762,77.02762,0,0,0-77.026-77.026m0,127.0266a50,50,0,1,1,49.9982-50.00055,50.00066,50.00066,0,0,1-49.9982,50.00055"/>
        <path  d="M248.07019,69.929a18.00105,18.00105,0,1,1-18.00048-17.99932A18.00363,18.00363,0,0,1,248.07019,69.929"/>
    </g>
</svg>