<svg id="Layer_1" data-name="Layer 1" xmlns="http://www.w3.org/2000/svg" viewBox="0 0 232.24308 300">
   
    <g id="Pt">
        <path  d="M35.29061,173.47052c3.93905,1.61482,7.47863.066,8.629-4.30228.78718-3.02192,2.67362-10.655,3.513-13.83567,1.16212-4.32678.71048-5.83614-2.48081-9.59731-6.93539-8.18913-11.36655-18.793-11.36655-33.80467,0-43.54578,32.57649-82.52832,84.8408-82.52832,46.27159,0,71.69436,28.27531,71.69436,66.0446,0,49.6823-21.98755,91.61114-54.63011,91.61114-18.03037,0-31.51879-14.90512-27.20267-33.18261,5.1928-21.832,15.21618-45.39175,15.21618-61.15434,0-14.10516-7.57029-25.87118-23.23808-25.87118-18.43407,0-33.238,19.06572-33.238,44.60351,0,16.26216,5.50378,27.2687,5.50378,27.2687s-18.85908,79.909-22.16541,93.89809c-6.59029,27.86308-.996,62.031-.51768,65.48112a2.29229,2.29229,0,0,0,4.0935.99381c1.70536-2.222,23.65244-29.32451,31.10443-56.39722,2.11972-7.66294,12.13138-47.35914,12.13138-47.35914,5.97994,11.4209,23.48518,21.46984,42.08542,21.46984,55.40341,0,92.9799-50.495,92.9799-118.09267C232.24308,47.60307,188.95826,0,123.15547,0,41.28227,0,0,58.698,0,107.64322,0,137.28729,11.22491,163.65379,35.29061,173.47052Z" />
    </g>
</svg>