<svg id="Layer_1" data-name="Layer 1" xmlns="http://www.w3.org/2000/svg" viewBox="0 0 300 300">

    <g id="WPP">
        <path  d="M299.85171,142.421C297.85368,63.42569,232.78232.01108,152.68366.01108,73.55116.01108,9.0309,61.97876,5.586,139.73582c-.06918,2.13407-.13713,4.27276-.13713,6.40683a145.00477,145.00477,0,0,0,21.09163,75.48117L0,300l81.54558-25.92132a147.45036,147.45036,0,0,0,71.13808,18.20015c81.34036,0,147.23607-65.41725,147.23607-146.13618C299.91973,144.90094,299.91973,143.6627,299.85171,142.421ZM152.68366,268.97811a123.30009,123.30009,0,0,1-68.10357-20.33422L37.01827,263.80953l15.43889-45.63412a121.606,121.606,0,0,1-23.574-72.03276,114.96244,114.96244,0,0,1,.61912-11.92245C35.57019,72.04038,88.50812,23.30834,152.68366,23.30834c65.00219,0,118.42435,49.97375,123.38426,113.25231.27785,3.17517.41505,6.34227.41505,9.582C276.483,213.90265,220.92559,268.97811,152.68366,268.97811Z"/>
        <path  d="M220.16926,175.645c-3.65355-1.78819-21.37071-10.47782-24.67961-11.64805-3.31122-1.2417-5.72315-1.79165-8.13508,1.79281-2.41193,3.58215-9.37332,11.64805-11.44283,13.992-2.13514,2.41193-4.20127,2.68863-7.85491.89582-3.58561-1.7928-15.23366-5.51331-29.0204-17.78509a107.06427,107.06427,0,0,1-20.061-24.74419c-2.066-3.58561-.20514-5.51446,1.58759-7.30727,1.65214-1.65214,3.58445-4.20473,5.443-6.27078.48538-.62258.89582-1.17368,1.30973-1.72479a40.09949,40.09949,0,0,0,2.27473-4.27506,6.46015,6.46015,0,0,0-.27325-6.27194c-.8969-1.7928-8.13507-19.4384-11.1695-26.60847-2.962-7.16661-5.99417-5.92836-8.1317-5.92836-2.06951,0-4.48136-.34242-6.89337-.34242a13.35817,13.35817,0,0,0-9.65117,4.478c-3.30776,3.58562-12.61306,12.27179-12.61306,29.91738a45.58141,45.58141,0,0,0,1.86083,12.20262c3.65372,12.613,11.512,23.01939,12.89091,24.81566,1.78935,2.34275,24.95287,39.70114,61.623,54.11046,36.73812,14.26866,36.73812,9.51052,43.35824,8.8914,6.61551-.55456,21.37071-8.617,24.32921-17.02647,3.03789-8.3403,3.03789-15.51037,2.1386-17.02647C226.16335,178.33476,223.748,177.43778,220.16926,175.645Z"/>
    </g>
</svg>