<svg id="Layer_1" data-name="Layer 1" xmlns="http://www.w3.org/2000/svg" viewBox="0 0 300 300">
    <defs>
        <style>.SVG_FbIg1{fill:none;stroke:#f26722;stroke-miterlimit:10;stroke-width:1.44444px;}.SVG_FbIg2{fill:#f26722;}</style>
    </defs>
    <circle class="SVG_FbIg1" cx="150" cy="150" r="150"/>
    <path class="SVG_FbIg2" d="M92.066,176.07262h19.97117v-50.012h13.93387l1.486-16.746H112.03721V99.7778c0-3.9476.793-5.50795,4.61083-5.50795h10.809V76.89073H113.62767c-14.86109,0-21.56163,6.54589-21.56163,19.07336v13.35056H81.67739v16.95529H92.066Z" />
    <path class="SVG_FbIg2" d="M170.09332,137.21922c12.64063,0,14.13742.04806,19.12916.276a26.18588,26.18588,0,0,1,8.79106,1.63077,15.6771,15.6771,0,0,1,8.98367,8.98368,26.2075,26.2075,0,0,1,1.63078,8.79106c.22684,4.99174.276,6.48853.276,19.12917,0,12.641-.04915,14.1378-.276,19.12917a26.19341,26.19341,0,0,1-1.63078,8.79034,15.67476,15.67476,0,0,1-8.98367,8.98476,26.18581,26.18581,0,0,1-8.79106,1.63078c-4.99174.22683-6.4878.27489-19.12916.27489-12.64211,0-14.1378-.04806-19.12953-.27489a26.16689,26.16689,0,0,1-8.79-1.63078,15.67178,15.67178,0,0,1-8.98513-8.98476,26.22491,26.22491,0,0,1-1.63041-8.79034c-.2272-4.99137-.27526-6.48817-.27526-19.12917,0-12.64064.04806-14.13743.27526-19.12917a26.239,26.239,0,0,1,1.63041-8.79106,15.67411,15.67411,0,0,1,8.98513-8.98368,26.167,26.167,0,0,1,8.79-1.63077c4.99173-.22793,6.48961-.276,19.12953-.276m0-8.52964c-12.85729,0-14.46912.055-19.51876.28472a34.77018,34.77018,0,0,0-11.49082,2.20059,24.202,24.202,0,0,0-13.8447,13.84579,34.71447,34.71447,0,0,0-2.20059,11.49082c-.23083,5.04963-.28508,6.66148-.28508,19.51839,0,12.85727.05425,14.46912.28508,19.51875a34.71453,34.71453,0,0,0,2.20059,11.49083,24.202,24.202,0,0,0,13.8447,13.84579,34.762,34.762,0,0,0,11.49082,2.20022c5.04964.23011,6.66147.28436,19.51876.28436,12.85653,0,14.46838-.05425,19.518-.28436a34.76246,34.76246,0,0,0,11.49119-2.20022,24.21067,24.21067,0,0,0,13.84579-13.84579,34.77073,34.77073,0,0,0,2.2006-11.49083c.22973-5.04963.284-6.66148.284-19.51875,0-12.85691-.05426-14.46876-.284-19.51839a34.77066,34.77066,0,0,0-2.2006-11.49082,24.21067,24.21067,0,0,0-13.84579-13.84579,34.77067,34.77067,0,0,0-11.49119-2.20059c-5.04963-.22975-6.66148-.28472-19.518-.28472" />
    <path class="SVG_FbIg2" d="M170.09332,151.72038a24.30969,24.30969,0,1,0,24.3095,24.30951,24.31,24.31,0,0,0-24.3095-24.30951m0,40.08974a15.78,15.78,0,1,1,15.77949-15.78023,15.78026,15.78026,0,0,1-15.77949,15.78023" />
    <path class="SVG_FbIg2" d="M201.04463,150.75917a5.68115,5.68115,0,1,1-5.681-5.6806,5.682,5.682,0,0,1,5.681,5.6806" />
</svg>