<svg id="Layer_1" data-name="Layer 1" xmlns="http://www.w3.org/2000/svg" viewBox="0 0 300 300">
    <defs>
        <style>.SVG_Pen1{fill:none;stroke:#f26722;stroke-miterlimit:10;stroke-width:1.44051px;}.SVG_Pen2{fill:#f26722;}</style>
    </defs>
    <g id="Branding">
        <circle class="SVG_Pen1" cx="150.35538" cy="149.85377" r="148.35538" />
        <circle class="SVG_Pen2" cx="96.40036" cy="102.12179" r="3.2344" />
        <path class="SVG_Pen2" d="M93.166,91.98933a3.20523,3.20523,0,0,0-.47786-1.671l.00968-.00558-.04787-.06486c-.03564-.05554-.07467-.10739-.11357-.16055-.8804-1.25164-5.44477-8.27711-7.358-21.39931h2.43021a2.94054,2.94054,0,0,0,2.94869-2.94875V53.234a2.94678,2.94678,0,0,0-2.94869-2.94875H75.10323a2.953,2.953,0,0,0-2.9487,2.94875V65.73929a2.94673,2.94673,0,0,0,2.9487,2.94875h3.77462A62.36331,62.36331,0,0,0,87.09247,93.5392l.01283-.00737a3.224,3.224,0,0,0,6.06067-1.5425Zm-8.7397-29.335h-6.1699v-6.1699h6.1699Z" />
        <circle class="SVG_Pen2" cx="203.77054" cy="102.0293" r="3.2344" />
        <path class="SVG_Pen2" d="M228.01637,65.64681V53.14152a2.953,2.953,0,0,0-2.94869-2.94875H212.56233a2.94676,2.94676,0,0,0-2.94869,2.94875V65.64681a2.94053,2.94053,0,0,0,2.94869,2.94875h2.43021c-1.91321,13.1222-6.47759,20.14767-7.358,21.3993-.0389.05316-.07793.105-.11356.16056l-.04788.06486.00968.00558a3.222,3.222,0,1,0,5.58282,3.21349l.01283.00737a62.36346,62.36346,0,0,0,8.21461-24.85116h3.77463A2.94673,2.94673,0,0,0,228.01637,65.64681Zm-6.10183-3.08495h-6.16991V56.392h6.16991Z" />
        <path class="SVG_Pen2" d="M197.42209,112.67146a3.13285,3.13285,0,0,0-4.32875-4.51146l-.00909-.01092-2.88092,2.29531a79.02343,79.02343,0,0,1-31.06631,11.9754v-2.6011a2.80557,2.80557,0,0,0-2.80276-2.81243H143.79a2.81386,2.81386,0,0,0-2.81249,2.81243v2.685a79.01544,79.01544,0,0,1-31.01-11.96679l-2.88092-2.29531-.00909.01093a3.134,3.134,0,0,0-4.32874,4.51145,3.158,3.158,0,0,0,.33126.29895l-.01081.013A64.77827,64.77827,0,0,0,120.367,123.23455h-30.586a8.96532,8.96532,0,0,0-8.38123-5.94609,9.17984,9.17984,0,0,0,0,18.35409,8.97263,8.97263,0,0,0,8.45078-6.14074h51.127v3.32824a2.82015,2.82015,0,0,0,2.81249,2.8125h12.54425a2.81183,2.81183,0,0,0,2.80276-2.8125v-3.372h51.16106a8.98277,8.98277,0,0,0,8.46545,6.18452,9.1796,9.1796,0,0,0,0-18.35409,8.97233,8.97233,0,0,0-8.36442,5.90232h-30.7186a64.752,64.752,0,0,0,17.42112-10.20736l-.01081-.013A3.16022,3.16022,0,0,0,197.42209,112.67146Zm18.10075,13.65778a3.24067,3.24067,0,1,1,3.24069,3.2407A3.24164,3.24164,0,0,1,215.52284,126.32924Zm-130.94083,0a3.2407,3.2407,0,1,1-3.24069-3.25037A3.2396,3.2396,0,0,1,84.582,126.32924Zm68.63808,3.17257h-6.26726v-6.26726h6.26726Z" />
        <path class="SVG_Pen2" d="M169.38158,240.7867v5.87988h-38.593V240.7867h38.593m2.75-2.75H128.03854v11.38h44.09308v-11.38Z" />
        <path class="SVG_Pen2" d="M154.22023,147.21794c4.94633,7.63939,20.48413,32.76943,26.93649,43.24274.0723.38377.26812,2.23459-1.44574,6.52261-2.30616,5.76071-11.31744,28.9082-13.87941,35.49263h-31.4882c-2.56241-6.58432-11.57508-29.73157-13.879-35.492-1.71562-4.28856-1.52051-6.13945-1.44831-6.52341,6.45145-10.47185,21.98631-35.597,26.93409-43.23918v34.37689a8.16156,8.16156,0,1,0,8.27013-.00075v-34.3795m-1.20316-5.1914c-1.0637,0-1.5469,1.50355-1.5469,1.50355v39.87355a5.40741,5.40741,0,1,1-2.77,0V143.53009s-.48136-1.50337-1.54418-1.50355c-.53151-.0001-1.2083.37574-2.04331,1.50355-2.50108,3.38309-28.55566,45.67883-28.55566,45.67883s-1.35278,2.03032,1.354,8.79642c2.70666,6.7673,14.5515,37.22064,14.5515,37.22064h35.25s11.8424-30.45334,14.5515-37.22064c2.70433-6.7661,1.35155-8.79642,1.35155-8.79642s-26.05456-42.29574-28.55565-45.67883c-.83409-1.12759-1.51106-1.50355-2.04288-1.50355Z" />
    </g>
</svg>