<svg xmlns="http://www.w3.org/2000/svg" viewBox="0 0 169.87359 169.87356"><defs><style>.cls-1{fill:none;stroke:#f26722;stroke-miterlimit:10;stroke-width:1.44012px;}.cls-2{fill:#f16924;}</style></defs><g id="Layer_2" data-name="Layer 2"><g id="seo"><circle class="cls-1" cx="84.82964" cy="85.28129" r="83.92002"/></g><path class="cls-2" d="M98.14264,98.18846v25.12259a1.06546,1.06546,0,0,1-1.06486,1.06486H72.815a1.06546,1.06546,0,0,1-1.06485-1.06486V98.18846h-5.269v28.5262c0,2.2914.95836,3.24581,3.2616,3.24581h30.4074c2.30324,0,3.2616-.95441,3.2616-3.24581V98.18846Z"/><path class="cls-2" d="M128.29284,69.71713a7.80816,7.80816,0,0,0-6.67426-3.24577c-.75617-.00914-1.51254-.0014-2.37767-.0014,0-1.01446.00188-1.96927-.00028-2.92407-.01074-4.714-3.09428-7.79008-7.813-7.80647-1.43069-.005-3.01636.34281-4.24779-.162-1.2012-.49238-2.04427-1.86415-3.03773-2.85667-3.45844-3.45521-6.90051-6.927-10.37982-10.361-.88674-.87519-1.888-1.63426-2.83669-2.44671H63.1378a3.35437,3.35437,0,0,0-1.95945,3.54582c.07859,3.75.02487,7.50273.02487,11.25436v1.02906c-1.10073,0-2.119-.0174-3.13648.003a7.31447,7.31447,0,0,0-7.41227,7.21534q-.0014.10341.00014.20684c-.02012,1.05373-.003,2.10817-.003,3.30238-.862,0-1.69818-.01381-2.53385.00244-3.32952.06472-5.91116,1.45585-7.34477,4.5083a8.93441,8.93441,0,0,0-.81427,3.63526q-.09341,15.60683-.026,31.21452a7.81061,7.81061,0,0,0,7.76744,8.08993c4.451.11793,8.90757.0257,13.43236.0257V98.1264c-.7576,0-1.53665.00753-2.31554-.00154a2.64748,2.64748,0,1,1,.02761-5.2713q26.11488-.00692,52.22974.00051a2.64738,2.64738,0,1,1-.02642,5.27111c-.75532.00775-1.51076.0013-2.31174.0013v15.76411a6.45485,6.45485,0,0,0,.64581.06164c4.07405.00386,8.14819.02027,12.22211-.00223a8.098,8.098,0,0,0,8.06921-5.94887c.10767-.35755.19767-.72046.29586-1.08086V73.50462A20.54324,20.54324,0,0,0,128.29284,69.71713ZM61.14468,66.45078H56.05133c0-1.33277-.09419-2.667.03329-3.97971a1.75152,1.75152,0,0,1,1.85395-1.43555c1.04745-.04649,2.09856-.0105,3.20614-.0105Zm42.22,5.22532H66.54557V45.24969H87.584c0,3.16839.04268,6.27144-.00888,9.37295-.107,6.43267.00183,6.51038,6.44782,6.40294,2.81149-.04684,5.62442-.00787,8.43668-.00784h.905ZM108.75551,61.025c1.09925,0,2.15087-.04155,3.19771.01129a1.93291,1.93291,0,0,1,1.97286,1.85883c.07835,1.15734.01755,2.32409.01755,3.5301h-5.18816Z"/></g></svg>