<svg id="Layer_1" data-name="Layer 1" xmlns="http://www.w3.org/2000/svg" viewBox="0 0 170 170">
    <defs>
        <style>.SearchIcon-1,.SearchIcon-3{fill:none;}.SearchIcon-1{stroke:#f26722;stroke-miterlimit:10;stroke-width:1;}.SearchIcon-2{fill:#f26728;}.SearchIcon-4{fill:#f26722;}</style>
    </defs>
    <g id="seo">
        <circle class="SearchIcon-1" cx="85" cy="85" r="85"/>
        <path class="SearchIcon-2" d="M55.17635,84.19588a4.83812,4.83812,0,0,1-1.94345-1.5,38.16877,38.16877,0,0,0-4.961,3.0667,31.98234,31.98234,0,0,0,7.49028,5.67921,32.762,32.762,0,0,1-.60991-6.51171C55.15545,84.6837,55.16905,84.44113,55.17635,84.19588Z"/>
        <path class="SearchIcon-2" d="M52.19641,79.73687a4.79492,4.79492,0,0,1,1.34406-3.33047,42.02081,42.02081,0,0,1-1.934-10.53769l-7.43788.00423a4.81247,4.81247,0,0,1-4.35128,3.74353,31.54808,31.54808,0,0,0,6.82812,14.34921,41.1827,41.1827,0,0,1,5.62412-3.49043A4.77844,4.77844,0,0,1,52.19641,79.73687Z"/>
        <path class="SearchIcon-2" d="M55.66586,75.1225a4.77246,4.77246,0,0,1,1.16735-.1977,32.31416,32.31416,0,0,1,4.75713-9.06024l-7.56873.00415A39.74285,39.74285,0,0,0,55.66586,75.1225Z"/>
        <path class="SearchIcon-2" d="M69.87862,91.708V78.68247a19.01241,19.01241,0,0,0-1.159,6.34906A19.23094,19.23094,0,0,0,69.87862,91.708Z"/>
        <path class="SearchIcon-2" d="M65.71558,32.11089A31.83028,31.83028,0,0,0,47.16521,42.48808a39.30646,39.30646,0,0,0,7.6262,4.73307A41.5681,41.5681,0,0,1,65.71558,32.11089Z"/>
        <path class="SearchIcon-2" d="M53.94524,63.45519l9.63757-.0053a32.734,32.734,0,0,1,6.29581-5.36158V53.35054a41.70141,41.70141,0,0,1-13.742-2.91464A39.81423,39.81423,0,0,0,53.94524,63.45519Z"/>
        <path class="SearchIcon-2" d="M44.07025,63.45988l7.462-.00469a42.1461,42.1461,0,0,1,2.38271-13.981,41.714,41.714,0,0,1-8.27583-5.11694,31.48568,31.48568,0,0,0-6.21621,15.63888l.03765-.00415A4.81139,4.81139,0,0,1,44.07025,63.45988Z"/>
        <path class="SearchIcon-2" d="M76.01108,95.01954A31.856,31.856,0,0,0,94.3105,85.34586a38.59927,38.59927,0,0,0-7.826-4.25187A40.99362,40.99362,0,0,1,76.01108,95.01954Z"/>
        <path class="SearchIcon-2" d="M87.41123,78.86971A41.07913,41.07913,0,0,1,95.90458,83.519a31.63,31.63,0,0,0,5.89927-11.52032A19.11854,19.11854,0,0,0,90.17673,66.1381,41.78437,41.78437,0,0,1,87.41123,78.86971Z"/>
        <path class="SearchIcon-2" d="M91.78442,49.99864a4.7754,4.7754,0,0,1-1.07415,3.00207,32.09011,32.09011,0,0,1,11.4388,3.36274,31.62651,31.62651,0,0,0-5.24871-11.51932A41.96938,41.96938,0,0,1,91.4717,48.3298,4.77865,4.77865,0,0,1,91.78442,49.99864Z"/>
        <path class="SearchIcon-2" d="M57.0047,48.17974a39.24078,39.24078,0,0,0,12.87392,2.75613V31.85A39.25439,39.25439,0,0,0,57.0047,48.17974Z"/>
        <path class="SearchIcon-2" d="M83.93855,46.25673A39.35439,39.35439,0,0,0,72.29368,32.12449V50.96414A39.26711,39.26711,0,0,0,82.174,49.51543,4.7796,4.7796,0,0,1,83.93855,46.25673Z"/>
        <path class="SearchIcon-2" d="M86.12464,45.25411a4.855,4.855,0,0,1,.8305-.08367,4.7838,4.7838,0,0,1,3.12432,1.17411,39.56827,39.56827,0,0,0,5.33346-3.39785A31.718,31.718,0,0,0,76.008,32.03775,41.61305,41.61305,0,0,1,86.12464,45.25411Z"/>
        <path class="SearchIcon-2" d="M82.53278,51.92911a41.6503,41.6503,0,0,1-10.2391,1.4517v3.27031a32.03205,32.03205,0,0,1,11.00061-3.53431A4.8188,4.8188,0,0,1,82.53278,51.92911Z"/>
        <path class="SearchIcon-2" d="M72.29368,78.23368V94.93533A39.381,39.381,0,0,0,84.20524,80.25972,39.95839,39.95839,0,0,0,72.29368,78.23368Z"/>
        <path class="SearchIcon-2" d="M87.77627,66.00056a19.17281,19.17281,0,0,0-15.48259,8.07906v1.74684a42.3203,42.3203,0,0,1,12.85509,2.20691A39.57614,39.57614,0,0,0,87.77627,66.00056Z"/>
        <path class="SearchIcon-3" d="M87.89557,64.95042a20.22262,20.22262,0,0,0-.14964,40.44467l.158.00053a20.2226,20.2226,0,0,0,.1443-40.44466ZM72.29371,74.07965a19.17272,19.17272,0,0,1,15.48253-8.079A39.57615,39.57615,0,0,1,85.1488,78.03342a42.31821,42.31821,0,0,0-12.85509-2.207ZM69.87863,91.708a19.2324,19.2324,0,0,1-1.159-6.67647,19.01344,19.01344,0,0,1,1.159-6.349Zm2.41508,3.22737V78.23371a39.95685,39.95685,0,0,1,11.91156,2.02607A39.38185,39.38185,0,0,1,72.29371,94.93537Zm3.71738.08418A40.993,40.993,0,0,0,86.48453,81.094a38.59972,38.59972,0,0,1,7.82594,4.25186A31.85592,31.85592,0,0,1,76.01109,95.01955Zm25.79275-23.02079a31.63029,31.63029,0,0,1-5.89926,11.52031,41.07926,41.07926,0,0,0-8.49335-4.64935,41.786,41.786,0,0,0,2.76551-12.73158A19.11836,19.11836,0,0,1,101.80384,71.99876Z"/>
        <path class="SearchIcon-4" d="M134.29934,123.82985l-21.39751-21.41291a31.027,31.027,0,0,0-25.41561-48.5371l-.23463-.00053a31.05869,31.05869,0,0,0-.22635,62.11654l.23463.00095a30.90291,30.90291,0,0,0,16.27471-4.61238l21.59638,21.608a6.481,6.481,0,0,0,9.073.0931l0,0A6.481,6.481,0,0,0,134.29934,123.82985ZM87.90391,105.39562l-.158-.00053a20.22262,20.22262,0,0,1,.14964-40.44467l.15264.00054a20.2226,20.2226,0,0,1-.1443,40.44466Z"/>
    </g>
</svg>