<svg id="Layer_1" data-name="Layer 1" xmlns="http://www.w3.org/2000/svg" viewBox="0 0 134.76765 134.76765">
    <defs>
        <style>.SVG_ServicesMarketing1,.SVG_ServicesMarketing3{fill:none;}.SVG_ServicesMarketing1{stroke:#f26722;stroke-width:0.7px;}.SVG_ServicesMarketing1,.SVG_ServicesMarketing4{stroke-miterlimit:10;}.SVG_ServicesMarketing2{fill:#f26728;}.SVG_ServicesMarketing4{fill:#f26722;stroke:#fff;}</style>
    </defs>
    <g id="seo">
        <circle class="SVG_ServicesMarketing1" cx="67.38383" cy="67.38383" r="66.66377" />
        <path class="SVG_ServicesMarketing2" d="M42.52856,60.33385A33.38014,33.38014,0,0,1,40.99224,51.963l-5.90844.00336a3.8229,3.8229,0,0,1-3.45655,2.97376,25.06093,25.06093,0,0,0,5.42408,11.39862A32.71443,32.71443,0,0,1,41.519,63.566l1.92169-.97168Z" />
        <path class="SVG_ServicesMarketing2" d="M52.20013,25.14672a25.28511,25.28511,0,0,0-14.7359,8.24335,31.22422,31.22422,0,0,0,6.05805,3.75983A33.02049,33.02049,0,0,1,52.20013,25.14672Z" />
        <path class="SVG_ServicesMarketing2" d="M35.00568,50.04949l5.92761-.00372a33.47967,33.47967,0,0,1,1.89276-11.10614,33.13566,33.13566,0,0,1-6.5741-4.06476A25.01139,25.01139,0,0,0,31.314,47.298l.02991-.0033A3.822,3.822,0,0,1,35.00568,50.04949Z" />
        <path class="SVG_ServicesMarketing2" d="M60.3786,75.11962a25.30552,25.30552,0,0,0,14.53656-7.68451,30.66239,30.66239,0,0,0-6.21674-3.37756A32.5641,32.5641,0,0,1,60.3786,75.11962Z" />
        <path class="SVG_ServicesMarketing2" d="M45.28046,37.91137a31.17129,31.17129,0,0,0,10.22668,2.18939V24.93945A31.18247,31.18247,0,0,0,45.28046,37.91137Z" />
        <path class="SVG_ServicesMarketing2" d="M57.4256,61.7854l0,13.67737a32.58944,32.58944,0,0,0,9.46219-12.06794A31.74186,31.74186,0,0,0,57.4256,61.7854Z" />
    </g>
    <path class="SVG_ServicesMarketing2" d="M55.50714,61.7854,55.32809,75.55a31.28321,31.28321,0,0,1-9.46222-11.65789A33.53853,33.53853,0,0,1,55.50714,61.7854Z" />
    <path class="SVG_ServicesMarketing2" d="M52.87988,75.39215a25.30552,25.30552,0,0,1-14.53656-7.68451,30.6619,30.6619,0,0,1,6.21674-3.37756A32.5641,32.5641,0,0,0,52.87988,75.39215Z" />
    <path class="SVG_ServicesMarketing2" d="M48.92313,51.95969l-6.01239.0033a31.51576,31.51576,0,0,0,.72461,5.1026,31.01645,31.01645,0,0,0,1.481,5.058A33.61837,33.61837,0,0,1,55.3281,60.37046V51.818Z" />
    <path class="SVG_ServicesMarketing2" d="M63.8306,51.53588l6.01239.00329a31.51576,31.51576,0,0,1-.72461,5.1026,31.01855,31.01855,0,0,1-1.481,5.058,33.61817,33.61817,0,0,0-10.21173-1.75312V51.39421Z" />
    <path class="SVG_ServicesMarketing2" d="M81.47751,54.30485a4.06479,4.06479,0,0,1-3.751-2.85687l-6.08581.17266c-.00775.29047-.02765.57672-.03955.8656a33.151,33.151,0,0,1-2.16657,9.80439,32.63189,32.63189,0,0,1,6.74689,3.69329,25.066,25.066,0,0,0,3.9729-6.96789A22.84167,22.84167,0,0,0,81.47751,54.30485Z" />
    <path class="SVG_ServicesMarketing2" d="M44.59085,39.70359a31.62755,31.62755,0,0,0-1.74078,10.34216l7.34851-.004,5.12952.00445.179-4.50445V42.0189A33.12668,33.12668,0,0,1,44.59085,39.70359Z" />
    <path class="SVG_ServicesMarketing2" d="M66.36618,40.37211A33.17033,33.17033,0,0,1,57.338,42.01v3.76355l.08759,4.2633,4.97827-.00415,7.59113.00415a31.65216,31.65216,0,0,0-1.43152-9.314A3.2821,3.2821,0,0,1,66.36618,40.37211Z" />
    <path class="SVG_ServicesMarketing2" d="M66.5087,36.06419a31.27553,31.27553,0,0,0-9.08313-10.90668v14.9657a31.19333,31.19333,0,0,0,7.84869-1.15082c.00238-.02362.01111-.04492.01392-.06842A3.07018,3.07018,0,0,1,66.5087,36.06419Z" />
    <path class="SVG_ServicesMarketing2" d="M71.64871,36.39787l.00019.00048a31.36553,31.36553,0,0,0,4.142-2.644A25.196,25.196,0,0,0,60.37613,25.0886a33.066,33.066,0,0,1,7.83264,10.10388A2.90512,2.90512,0,0,1,71.64871,36.39787Z" />
    <path class="SVG_ServicesMarketing2" d="M76.59317,34.87485a33.259,33.259,0,0,1-4.81988,3.18085A3.60284,3.60284,0,0,1,70.361,39.98081a33.52416,33.52416,0,0,1,1.55078,10.06494l5.92761.00373a3.822,3.822,0,0,1,3.6618-2.75483l.02991.0033A25.0107,25.0107,0,0,0,76.59317,34.87485Z" />
    <path class="SVG_ServicesMarketing4" d="M106.6812,98.00574,89.6836,80.99591A24.647,24.647,0,0,0,69.49414,42.43938l-.18639-.00042a24.67217,24.67217,0,0,0-.1798,49.34367l.18639.00075a24.54853,24.54853,0,0,0,12.92818-3.66394l17.15557,17.16483a5.1483,5.1483,0,0,0,7.20732.07395l0,0A5.14831,5.14831,0,0,0,106.6812,98.00574ZM69.82594,83.3621l-.1255-.00043a16.06429,16.06429,0,0,1,.11887-32.12813l.12126.00043a16.06428,16.06428,0,0,1-.11463,32.12813Z" />
</svg>