<svg xmlns="http://www.w3.org/2000/svg" viewBox="0 0 638.91928 7.44452">
    <defs>
        <style>.SVG_ServiceDots1{
            fill:#bbb;
            
        }</style>
    </defs>
    <g id="Layer_1" data-name="Layer 1">
        <g id="Layer_1-2" data-name="Layer 1">
            <circle class="SVG_ServiceDots1" cx="331.12252" cy="3.77299" r="3.67153" />
            <circle class="SVG_ServiceDots1" cx="349.48018" cy="3.77299" r="3.67153" />
            <circle class="SVG_ServiceDots1" cx="367.83784" cy="3.77299" r="3.67153" />
            <circle class="SVG_ServiceDots1" cx="386.1955" cy="3.77299" r="3.67153" />
            <circle class="SVG_ServiceDots1" cx="404.55316" cy="3.77299" r="3.67153" />
            <circle class="SVG_ServiceDots1" cx="422.91082" cy="3.77299" r="3.67153" />
            <circle class="SVG_ServiceDots1" cx="441.26848" cy="3.77299" r="3.67153" />
        </g>
        <g id="Layer_3" data-name="Layer 3">
            <circle class="SVG_ServiceDots1" cx="459.38137" cy="3.77299" r="3.67153" />
            <circle class="SVG_ServiceDots1" cx="477.73903" cy="3.77299" r="3.30438" />
            <circle class="SVG_ServiceDots1" cx="496.09669" cy="3.77299" r="2.93723" />
            <circle class="SVG_ServiceDots1" cx="514.45436" cy="3.77299" r="2.57008" />
            <circle class="SVG_ServiceDots1" cx="532.812" cy="3.77299" r="2.20292" />
            <circle class="SVG_ServiceDots1" cx="565.85579" cy="3.77299" r="1.83577" />
            <circle class="SVG_ServiceDots1" cx="580.54192" cy="3.77299" r="1.46861" />
            <circle class="SVG_ServiceDots1" cx="595.22805" cy="3.77299" r="1.10146" />
            <circle class="SVG_ServiceDots1" cx="624.6003" cy="3.77299" r="0.73431" />
            <circle class="SVG_ServiceDots1" cx="609.91418" cy="3.77299" r="0.73431" />
            <circle class="SVG_ServiceDots1" cx="551.16966" cy="3.77299" r="1.83577" />
        </g>
        <g id="Layer_1-3" data-name="Layer 1">
            <circle class="SVG_ServiceDots1" cx="312.31452" cy="3.67153" r="3.67153" />
            <circle class="SVG_ServiceDots1" cx="293.95686" cy="3.67153" r="3.67153" />
            <circle class="SVG_ServiceDots1" cx="275.5992" cy="3.67153" r="3.67153" />
            <circle class="SVG_ServiceDots1" cx="257.24154" cy="3.67153" r="3.67153" />
            <circle class="SVG_ServiceDots1" cx="238.88388" cy="3.67153" r="3.67153" />
            <circle class="SVG_ServiceDots1" cx="220.52622" cy="3.67153" r="3.67153" />
            <circle class="SVG_ServiceDots1" cx="202.16856" cy="3.67153" r="3.67153" />
        </g>
    </g>
    <g id="Layer_2" data-name="Layer 2">
        <g id="Layer_3-2" data-name="Layer 3">
            <circle class="SVG_ServiceDots1" cx="184.05567" cy="3.67153" r="3.67153" />
            <circle class="SVG_ServiceDots1" cx="165.69801" cy="3.67153" r="3.30438" />
            <circle class="SVG_ServiceDots1" cx="147.34035" cy="3.67153" r="2.93723" />
            <circle class="SVG_ServiceDots1" cx="128.98268" cy="3.67153" r="2.57008" />
            <circle class="SVG_ServiceDots1" cx="110.62504" cy="3.67153" r="2.20292" />
            <circle class="SVG_ServiceDots1" cx="77.58125" cy="3.67153" r="1.83577" />
            <circle class="SVG_ServiceDots1" cx="62.89512" cy="3.67153" r="1.46861" />
            <circle class="SVG_ServiceDots1" cx="48.20899" cy="3.67153" r="1.10146" />
            <circle class="SVG_ServiceDots1" cx="18.83674" cy="3.67153" r="0.73431" />
            <circle class="SVG_ServiceDots1" cx="4.15061" cy="3.67153" r="0.36715" />
            <circle class="SVG_ServiceDots1" cx="33.52287" cy="3.67153" r="0.73431" />
            <circle class="SVG_ServiceDots1" cx="92.26738" cy="3.67153" r="1.83577" />
        </g>
    </g>
</svg>