<svg id="Layer_1" data-name="Layer 1" xmlns="http://www.w3.org/2000/svg" viewBox="0 0 300 300">
    <defs>
        <style> .SVG_wwwIcon1{fill:none;stroke:#f26722;stroke-miterlimit:10;stroke-width:1.44559px;}
                .SVG_wwwIcon2{fill:#ddd;}
                .SVG_wwwIcon3{fill:#f26722;}
                .SVG_wwwIcon4{fill:#f26722;}
        </style>
    </defs>
    <g id="Web_Dev" data-name="Web Dev">
        <circle class="SVG_wwwIcon1" cx="150.11948" cy="150.2293" r="148.15503" />
        <path class="SVG_wwwIcon2" d="M173.45087,115.94494a55.90364,55.90364,0,0,0,7.2677-4.49263,46.85121,46.85121,0,0,0-10.97293-8.31975,47.99668,47.99668,0,0,1,.89345,9.53941c-.00471.3609-.02464.7163-.03532,1.07562A7.08616,7.08616,0,0,1,173.45087,115.94494Z" />
        <path class="SVG_wwwIcon2" d="M175.83356,140.59608l10.89619-.00612a7.04987,7.04987,0,0,1,6.37443-5.48412,46.21705,46.21705,0,0,0-10.003-21.02105,60.32248,60.32248,0,0,1-8.23911,5.11332,6.73118,6.73118,0,0,1-1.86187,5.96066A61.56,61.56,0,0,1,175.83356,140.59608Z" />
        <path class="SVG_wwwIcon2" d="M169.88671,127.03964a6.98872,6.98872,0,0,1-1.71016.28964,47.34,47.34,0,0,1-6.96894,13.27291l11.08779-.00611A58.21728,58.21728,0,0,0,169.88671,127.03964Z" />
        <path class="SVG_wwwIcon2" d="M149.06555,121.82446a27.85386,27.85386,0,0,0,1.69791-9.30108,28.17459,28.17459,0,0,0-1.69791-9.78075Z" />
        <path class="SVG_wwwIcon2" d="M182.33977,174.84783A57.58174,57.58174,0,0,0,171.1677,167.914a60.89584,60.89584,0,0,1-16.00342,22.13589A46.63017,46.63017,0,0,0,182.33977,174.84783Z" />
        <path class="SVG_wwwIcon2" d="M172.40728,144.13186l-14.11865.00767a47.95453,47.95453,0,0,1-9.22308,7.85454v6.94071a61.088,61.088,0,0,1,20.13153,4.2698A58.32763,58.32763,0,0,0,172.40728,144.13186Z" />
        <path class="SVG_wwwIcon2" d="M193.62683,149.20535a7.0486,7.0486,0,0,1-6.753-5.0804l-10.93152.00691a61.74166,61.74166,0,0,1-3.49058,20.48161,61.10517,61.10517,0,0,1,12.12371,7.49615,46.12363,46.12363,0,0,0,9.1065-22.91039Z" />
        <path class="SVG_wwwIcon2" d="M140.08174,97.89133a46.66769,46.66769,0,0,0-26.80785,14.17152,56.54736,56.54736,0,0,0,11.46468,6.22882A60.0531,60.0531,0,0,1,140.08174,97.89133Z" />
        <path class="SVG_wwwIcon2" d="M123.381,121.55018a60.17865,60.17865,0,0,1-12.44241-6.8111,46.337,46.337,0,0,0-8.64219,16.87679,28.00769,28.00769,0,0,0,17.03323,8.58557A61.21494,61.21494,0,0,1,123.381,121.55018Z" />
        <path class="SVG_wwwIcon2" d="M101.79067,154.521a46.33168,46.33168,0,0,0,7.68916,16.87537,61.4851,61.4851,0,0,1,7.95275-5.10644,6.87017,6.87017,0,0,1,1.11548-6.84264A47.01112,47.01112,0,0,1,101.79067,154.521Z" />
        <path class="SVG_wwwIcon2" d="M149.06555,162.47213v27.96a57.50562,57.50562,0,0,0,18.85979-23.92247A57.48816,57.48816,0,0,0,149.06555,162.47213Z" />
        <path class="SVG_wwwIcon2" d="M145.52755,190.03V162.43071a57.5264,57.5264,0,0,0-14.47434,2.12235,7.00151,7.00151,0,0,1-2.58492,4.77379A57.6526,57.6526,0,0,0,145.52755,190.03Z" />
        <path class="SVG_wwwIcon2" d="M125.26578,170.79568a7.11382,7.11382,0,0,1-1.21667.12254,7.00782,7.00782,0,0,1-4.577-1.72,57.967,57.967,0,0,0-7.81329,4.97777,46.46613,46.46613,0,0,0,28.4275,15.98115A60.96165,60.96165,0,0,1,125.26578,170.79568Z" />
        <path class="SVG_wwwIcon2" d="M145.52755,154.09949a46.92383,46.92383,0,0,1-16.11545,5.17765,7.05436,7.05436,0,0,1,1.11562,1.74,61.019,61.019,0,0,1,14.99983-2.12674Z" />
        <path class="SVG_wwwIcon2" d="M145.52755,98.01466a57.69289,57.69289,0,0,0-17.45,21.49915,58.53514,58.53514,0,0,0,17.45,2.9681Z" />
        <path class="SVG_wwwIcon2" d="M145.52755,128.56745v-2.559a61.99409,61.99409,0,0,1-18.83219-3.23309,57.97758,57.97758,0,0,0-3.8491,17.6276A28.08728,28.08728,0,0,0,145.52755,128.56745Z" />
        <path class="SVG_wwwIcon3" d="M91.89825,79.84288H90.45288a4.81789,4.81789,0,1,0,0,9.63578h1.44537a4.81789,4.81789,0,0,0,0-9.63578Z" />
        <path class="SVG_wwwIcon3" d="M113.33787,79.84288H111.8925a4.81789,4.81789,0,1,0,0,9.63578h1.44537a4.81789,4.81789,0,1,0,0-9.63578Z" />
        <path class="SVG_wwwIcon3" d="M134.7775,79.84288h-1.44537a4.81789,4.81789,0,1,0,0,9.63578h1.44537a4.81789,4.81789,0,0,0,0-9.63578Z" />
        <path class="SVG_wwwIcon3" d="M216.44079,57.43968H82.50336A19.84267,19.84267,0,0,0,62.75,77.193V211.37136a19.794,19.794,0,0,0,19.75336,19.51246H216.68168A19.84266,19.84266,0,0,0,236.435,211.13047V77.193A20.21113,20.21113,0,0,0,216.44079,57.43968Zm10.11757,153.69079A10.17863,10.17863,0,0,1,216.44079,221.248H82.50336a10.17864,10.17864,0,0,1-10.11758-10.11757V111.641h132.733a4.81789,4.81789,0,1,0,0-9.63578H72.38578V77.193A10.17864,10.17864,0,0,1,82.50336,67.07546H216.68168A10.13205,10.13205,0,0,1,226.55836,77.193Z" />
    <g id="www">
        <path class="SVG_wwwIcon4" d="M126.828,148.01606h-2.64984a1.8318,1.8318,0,0,0-1.92715,1.44537l-4.577,15.65815-4.09521-15.65815a1.8318,1.8318,0,0,0-1.92716-1.44537h-3.61342a2.09838,2.09838,0,0,0-1.92715,1.44537l-4.09521,15.65815-4.577-15.65815a1.8318,1.8318,0,0,0-1.92716-1.44537H93.10273a2.00239,2.00239,0,0,0-1.92716,2.64984l6.98594,22.16231a1.8318,1.8318,0,0,0,1.92716,1.44536h3.61342a2.09839,2.09839,0,0,0,1.92715-1.44536l4.09521-15.41726,4.09521,15.41726a1.8318,1.8318,0,0,0,1.92716,1.44536h3.61342a1.83181,1.83181,0,0,0,1.92716-1.44536l7.22683-22.16231A1.75064,1.75064,0,0,0,126.828,148.01606Z" />
        <path class="SVG_wwwIcon4" d="M166.3347,148.01606h-2.64984a1.8318,1.8318,0,0,0-1.92716,1.44537l-4.577,15.65815-3.85431-15.65815a1.83179,1.83179,0,0,0-1.92715-1.44537h-3.61342a2.09838,2.09838,0,0,0-1.92716,1.44537l-4.09521,15.65815-4.577-15.65815a1.83179,1.83179,0,0,0-1.92715-1.44537h-2.409a2.00239,2.00239,0,0,0-1.92716,2.64984l6.986,22.16231a1.83179,1.83179,0,0,0,1.92715,1.44536h3.61342a2.09838,2.09838,0,0,0,1.92716-1.44536l4.09521-15.41726,4.09521,15.41726a1.83179,1.83179,0,0,0,1.92716,1.44536h3.61341a1.83179,1.83179,0,0,0,1.92715-1.44536l6.986-22.16231A1.90313,1.90313,0,0,0,166.3347,148.01606Z" />
        <path class="SVG_wwwIcon4" d="M205.60052,148.01606h-2.64983a1.8318,1.8318,0,0,0-1.92716,1.44537l-4.577,15.65815-4.09521-15.65815a1.8318,1.8318,0,0,0-1.92716-1.44537h-3.61342a2.09837,2.09837,0,0,0-1.92715,1.44537l-4.09521,15.65816-4.577-15.65816a1.83179,1.83179,0,0,0-1.92715-1.44536h-2.409a2.00238,2.00238,0,0,0-1.92715,2.64984l6.986,22.16231a1.83179,1.83179,0,0,0,1.92715,1.44536h3.61342a2.0984,2.0984,0,0,0,1.92716-1.44536L188.497,157.411l4.09521,15.41726a1.83179,1.83179,0,0,0,1.92715,1.44536h3.61342a1.8318,1.8318,0,0,0,1.92716-1.44536l7.22684-22.16231A1.90314,1.90314,0,0,0,205.60052,148.01606Z" />
    </g>
    </g>
</svg>