<svg id="Layer_1" data-name="Layer 1" xmlns="http://www.w3.org/2000/svg" viewBox="0 0 723.65825 475.90715">
    <defs>
        <style>.GAPASVGCLASS-1{fill:#e0e0e0;}.GAPASVGCLASS-2{fill:#fafbfb;}.GAPASVGCLASS-3{fill:#263238;}.GAPASVGCLASS-4{fill:#455b64;}.GAPASVGCLASS-5{fill:#f06724;}.GAPASVGCLASS-6{opacity:0.3;}.GAPASVGCLASS-7{fill:#fff;}.GAPASVGCLASS-8{fill:#fba919;}</style>
    </defs>
    <rect class="GAPASVGCLASS-1" x="44.82932" y="2.93473" width="677.57737" height="449.44868"/>
    <rect class="GAPASVGCLASS-2" x="4.20876" y="14.2149" width="701.70788" height="460.26109"/>
    <path class="GAPASVGCLASS-3" d="M705.91663,474.476c-.00525-4.43132-.21206-179.54266-.54361-460.26083l.54335.54335c-192.56521.03833-436.765.08715-701.6517.13991H4.209l.68326-.68326c-.02,163.68234-.03884,319.44856-.05591,460.26057l-.62735-.62735c412.877.36932,696.08407.62262,701.70761.62761-5.61961.00525-288.83036.25855-701.70761.62761l-.62787.00079v-.62866c-.01706-140.812-.036-296.57823-.0559-460.26057v-.68378h.73942c264.88672.053,509.08649.10158,701.6517.14017h.5444l-.00079.54361C706.12846,294.9336,705.92188,470.04782,705.91663,474.476Z"/>
    <path class="GAPASVGCLASS-4" d="M218.66075,268.38292l69.01889.951c-.52682,36.78141-31.51879,66.75834-69.01889,66.75834q-.20238,0-.405-.00131Z"/>
    <path class="GAPASVGCLASS-3" d="M332.7827,361.83447a6.90467,6.90467,0,0,1-1.476.11917c-1.0909.02861-2.491.06483-4.22.10972-3.80476.04409-9.04507.10473-15.42012.17875l-.19529.00236-.12521-.15775c-6.15771-7.75784-14.1027-17.76756-22.76874-28.68575-6.73046-8.58258-13.02388-16.60736-18.35422-23.40449l.35541.17219c-8.31089-.07717-15.26945-.142-20.31238-.189q-3.516-.07756-5.6813-.12495a10.99408,10.99408,0,0,1-2.00882-.13885,10.98139,10.98139,0,0,1,2.00882-.1386q2.16357-.04723,5.6813-.12494c5.04293-.04672,12.00122-.11156,20.31238-.18925l.21735-.00184.13858.17455c5.36473,6.76983,11.69883,14.76233,18.47339,23.31052,8.5936,10.97515,16.47219,21.03737,22.57844,28.8359l-.31971-.15513c6.375.07375,11.61536.13439,15.42012.17849,1.72927.04515,3.12939.08163,4.22.10972A6.94866,6.94866,0,0,1,332.7827,361.83447Z"/>
    <path class="GAPASVGCLASS-3" d="M357.54058,369.79206c0,.29215-9.99869.52865-22.32986.52865-12.33537,0-22.332-.2365-22.332-.52865,0-.29189,9.99659-.52865,22.332-.52865C347.54189,369.26341,357.54058,369.50017,357.54058,369.79206Z"/>
    <path class="GAPASVGCLASS-3" d="M357.54058,378.06148c0,.29241-9.99869.52892-22.32986.52892-12.33537,0-22.332-.23651-22.332-.52892,0-.29188,9.99659-.52865,22.332-.52865C347.54189,377.53283,357.54058,377.7696,357.54058,378.06148Z"/>
    <path class="GAPASVGCLASS-5" d="M207.74387,258.56062l-.96937,67.70251c-37.49642-.51658-68.05608-30.91743-68.05608-67.70251,0-37.14417,31.15918-67.70933,69.02545-67.70933,37.86654,0,69.02571,30.56516,69.02571,67.70933Z"/>
    <path class="GAPASVGCLASS-3" d="M180.795,236.41791a4.45437,4.45437,0,0,1-1.19826.28086c-.93787.15015-2.07287.33126-3.43335.54886-3.16823.44466-7.37906,1.03526-12.39836,1.73951l-.20395.02861-.15356-.14935c-4.71875-4.59066-10.40372-10.121-16.5378-16.08842-7.94447-7.793-15.09412-14.88912-20.23231-20.06328-2.45112-2.5002-4.48567-4.57517-6.04616-6.16663a18.192,18.192,0,0,1-2.11592-2.364,18.20426,18.20426,0,0,1,2.40413,2.07c1.62114,1.52952,3.73494,3.5239,6.2816,5.92672,5.27234,5.03741,12.50494,12.04925,20.4494,19.842,6.08423,6.01833,11.72325,11.59567,16.40393,16.22518l-.357-.12049c5.03793-.55516,9.26453-1.02134,12.44456-1.37176,1.372-.12468,2.51674-.22889,3.46248-.31472A4.43207,4.43207,0,0,1,180.795,236.41791Z"/>
    <path class="GAPASVGCLASS-3" d="M100.99285,191.20407c0,.29189-9.99869.52865-22.32987.52865-12.33536,0-22.332-.23676-22.332-.52865,0-.29215,9.9966-.52891,22.332-.52891C90.99416,190.67516,100.99285,190.91192,100.99285,191.20407Z"/>
    <path class="GAPASVGCLASS-3" d="M100.99285,199.47323c0,.29241-9.99869.52918-22.32987.52918-12.33536,0-22.332-.23677-22.332-.52918,0-.29162,9.9966-.52865,22.332-.52865C90.99416,198.94458,100.99285,199.18161,100.99285,199.47323Z"/>
    <path class="GAPASVGCLASS-5" d="M449.2114,124.79852l-.274-42.07344A53.68814,53.68814,0,0,0,414.227,96.25818,49.76372,49.76372,0,0,0,397.49967,139.833a59.6218,59.6218,0,0,0,.982,6.11282c.01076.04961.01706.09791.02784.14752l.006-.00131,50.6959-11.40747Z"/>
    <g class="GAPASVGCLASS-6">
        <path class="GAPASVGCLASS-7" d="M449.2114,124.79852l-.274-42.07344A53.68814,53.68814,0,0,0,414.227,96.25818,49.76372,49.76372,0,0,0,397.49967,139.833a59.6218,59.6218,0,0,0,.982,6.11282c.01076.04961.01706.09791.02784.14752l.006-.00131,50.6959-11.40747Z"/>
    </g>
    <path class="GAPASVGCLASS-8" d="M501.4615,111.84578A49.90985,49.90985,0,0,0,460.54433,83.201c-.53154-.05328-1.066-.10184-1.6059-.141-.34124-.02468-.677-.05854-1.02161-.0777q-1.50524-.08229-3.05376-.08846c-.047,0-.09216-.00393-.13912-.00393l-.00737-.00027c-.043,0-.08426-.00367-.12757-.00367v.00761l.27406,42.0737.06455,9.8874,50.7106,11.06413.06221.01365v-.00026a50.03019,50.03019,0,0,0,1.12581-10.90874A54.58465,54.58465,0,0,0,501.4615,111.84578Z"/>
    <path class="GAPASVGCLASS-5" d="M451.92844,139.93725l-50.69592,11.40748a51.96461,51.96461,0,0,0,101.47107-.342L451.993,139.93857"/>
    <path class="GAPASVGCLASS-3" d="M649.26566,132.36316c0,.37772-26.21127.68352-58.53694.68352-32.337,0-58.54246-.3058-58.54246-.68352,0-.3772,26.2055-.68326,58.54246-.68326C623.05439,131.6799,649.26566,131.986,649.26566,132.36316Z"/>
    <path class="GAPASVGCLASS-3" d="M649.26566,119.01748c0,.37772-26.21127.68378-58.53694.68378-32.337,0-58.54246-.30606-58.54246-.68378,0-.3772,26.2055-.68326,58.54246-.68326C623.05439,118.33422,649.26566,118.64028,649.26566,119.01748Z"/>
    <path class="GAPASVGCLASS-3" d="M649.26566,105.67179c0,.37772-26.21127.68379-58.53694.68379-32.337,0-58.54246-.30607-58.54246-.68379,0-.37719,26.2055-.68325,58.54246-.68325C623.05439,104.98854,649.26566,105.2946,649.26566,105.67179Z"/>
    <path class="GAPASVGCLASS-3" d="M649.26566,144.77859c0,.37772-26.21127.68351-58.53694.68351-32.337,0-58.54246-.30579-58.54246-.68351,0-.3772,26.2055-.68326,58.54246-.68326C623.05439,144.09533,649.26566,144.40139,649.26566,144.77859Z"/>
    <path class="GAPASVGCLASS-3" d="M613.01291,158.29147c0,.37772-18.003.68352-40.20531.68352-22.21017,0-40.209-.3058-40.209-.68352,0-.37719,17.99881-.68325,40.209-.68325C595.0099,157.60822,613.01291,157.91428,613.01291,158.29147Z"/>
    <rect class="GAPASVGCLASS-5" x="409.40403" y="254.89261" width="12.05949" height="134.67924"/>
    <rect class="GAPASVGCLASS-5" x="432.68544" y="300.63484" width="12.05973" height="88.93701"/>
    <rect class="GAPASVGCLASS-5" x="455.96732" y="271.63279" width="12.05951" height="118.62363"/>
    <rect class="GAPASVGCLASS-5" x="479.24897" y="260.09329" width="12.05949" height="129.47856"/>
    <rect class="GAPASVGCLASS-5" x="502.53061" y="303.37259" width="12.05975" height="86.19926"/>
    <rect class="GAPASVGCLASS-5" x="525.81226" y="320.27761" width="12.05949" height="69.29424"/>
    <rect class="GAPASVGCLASS-5" x="549.0939" y="268.71576" width="12.05975" height="120.85609"/>
    <rect class="GAPASVGCLASS-5" x="572.37581" y="290.5049" width="12.05949" height="99.06695"/>
    <rect class="GAPASVGCLASS-5" x="595.65719" y="273.09354" width="12.05975" height="116.47831"/>
    <rect class="GAPASVGCLASS-5" x="618.93912" y="310.21723" width="12.05947" height="79.35462"/>
    <rect class="GAPASVGCLASS-5" x="642.22074" y="295.11708" width="12.05949" height="94.45477"/>
    <path class="GAPASVGCLASS-3" d="M659.20294,398.95212c0,.27378-57.20217.49558-127.74848.49558-70.57047,0-127.76059-.2218-127.76059-.49558,0-.27351,57.19012-.49531,127.76059-.49531C602.00077,398.45681,659.20294,398.67861,659.20294,398.95212Z"/>
    <path class="GAPASVGCLASS-3" d="M426.6054,409.553c0,.27351-4.00688.49531-8.94874.49531-4.94344,0-8.9498-.2218-8.9498-.49531,0-.27378,4.00636-.49558,8.9498-.49558C422.59852,409.05739,426.6054,409.27919,426.6054,409.553Z"/>
    <path class="GAPASVGCLASS-3" d="M456.29123,410.09291c0,.27351-4.78909.49531-10.69534.49531-5.90782,0-10.69586-.2218-10.69586-.49531,0-.27378,4.788-.49558,10.69586-.49558C451.50214,409.59733,456.29123,409.81913,456.29123,410.09291Z"/>
    <path class="GAPASVGCLASS-3" d="M481.6111,410.09291c0,.27351-4.78884.49531-10.69482.49531-5.90834,0-10.69613-.2218-10.69613-.49531,0-.27378,4.78779-.49558,10.69613-.49558C476.82226,409.59733,481.6111,409.81913,481.6111,410.09291Z"/>
    <path class="GAPASVGCLASS-3" d="M506.931,410.09291c0,.27351-4.78883.49531-10.69481.49531-5.90833,0-10.69611-.2218-10.69611-.49531,0-.27378,4.78778-.49558,10.69611-.49558C502.14213,409.59733,506.931,409.81913,506.931,410.09291Z"/>
    <path class="GAPASVGCLASS-3" d="M532.25109,410.09291c0,.27351-4.78907.49531-10.69482.49531-5.90834,0-10.69612-.2218-10.69612-.49531,0-.27378,4.78778-.49558,10.69612-.49558C527.462,409.59733,532.25109,409.81913,532.25109,410.09291Z"/>
    <path class="GAPASVGCLASS-3" d="M557.571,410.09291c0,.27351-4.78858.49531-10.69482.49531-5.90834,0-10.69613-.2218-10.69613-.49531,0-.27378,4.78779-.49558,10.69613-.49558C552.78238,409.59733,557.571,409.81913,557.571,410.09291Z"/>
    <path class="GAPASVGCLASS-3" d="M582.89108,410.09291c0,.27351-4.78909.49531-10.69507.49531-5.90782,0-10.69587-.2218-10.69587-.49531,0-.27378,4.788-.49558,10.69587-.49558C578.102,409.59733,582.89108,409.81913,582.89108,410.09291Z"/>
    <path class="GAPASVGCLASS-3" d="M608.21124,410.09291c0,.27351-4.78886.49531-10.69511.49531-5.90808,0-10.69613-.2218-10.69613-.49531,0-.27378,4.788-.49558,10.69613-.49558C603.42238,409.59733,608.21124,409.81913,608.21124,410.09291Z"/>
    <path class="GAPASVGCLASS-3" d="M633.53134,410.09291c0,.27351-4.7891.49531-10.69534.49531-5.90782,0-10.69587-.2218-10.69587-.49531,0-.27378,4.788-.49558,10.69587-.49558C628.74224,409.59733,633.53134,409.81913,633.53134,410.09291Z"/>
    <path class="GAPASVGCLASS-3" d="M658.8512,410.09291c0,.27351-4.78883.49531-10.69507.49531-5.90806,0-10.69613-.2218-10.69613-.49531,0-.27378,4.78807-.49558,10.69613-.49558C654.06237,409.59733,658.8512,409.81913,658.8512,410.09291Z"/>
    <g class="GAPASVGCLASS-6">
        <rect class="GAPASVGCLASS-7" x="432.68544" y="300.63484" width="12.05973" height="88.93701"/>
    </g>
    <g class="GAPASVGCLASS-6">
        <rect class="GAPASVGCLASS-7" x="479.24897" y="260.09329" width="12.05949" height="129.47856"/>
    </g>
    <g class="GAPASVGCLASS-6">
        <rect class="GAPASVGCLASS-7" x="525.81226" y="320.27761" width="12.05949" height="69.29424"/>
    </g>
    <g class="GAPASVGCLASS-6">
        <rect class="GAPASVGCLASS-7" x="572.37581" y="290.5049" width="12.05949" height="99.06695"/>
    </g>
    <g class="GAPASVGCLASS-6">
        <rect class="GAPASVGCLASS-7" x="618.93912" y="310.21723" width="12.05947" height="79.35462"/>
    </g>
    <path class="GAPASVGCLASS-5" d="M89.46332,100.72442A11.60762,11.60762,0,1,1,77.85583,89.11667,11.60756,11.60756,0,0,1,89.46332,100.72442Z"/>
    <path class="GAPASVGCLASS-5" d="M289.03014,91.56883c0,.37772-39.1388.68352-87.40749.68352-48.28574,0-87.41615-.3058-87.41615-.68352,0-.37719,39.13041-.68325,87.41615-.68325C249.89134,90.88558,289.03014,91.19164,289.03014,91.56883Z"/>
    <path class="GAPASVGCLASS-5" d="M184.39135,105.60591a10.46331,10.46331,0,0,1-2.70782.2659c-1.74345.0819-4.26648.15566-7.38406.21734-6.23488.12363-14.8479.20028-24.36073.20028-9.51624,0-18.1303-.07665-24.36519-.20028-3.11756-.06168-5.64007-.13544-7.38353-.21734a10.45642,10.45642,0,0,1-2.70731-.2659,10.44685,10.44685,0,0,1,2.70731-.26616c1.74346-.08164,4.266-.1554,7.38353-.21708,6.23489-.12363,14.849-.20028,24.36519-.20028,9.51283,0,18.12585.07665,24.36073.20028,3.11758.06168,5.64061.13544,7.38406.21708A10.45374,10.45374,0,0,1,184.39135,105.60591Z"/>
</svg>