<svg id="Layer_1" data-name="Layer 1" xmlns="http://www.w3.org/2000/svg" viewBox="0 0 511.04498 146.84213">
    <defs>
        <style>.SVG_HowDo1{fill:#fba919;}.SVG_HowDo2{fill:#f7931e;}.SVG_HowDo3{fill:#f57e20;}.SVG_HowDo4{fill:#f26722;}.SVG_HowDo10,.SVG_HowDo5,.SVG_HowDo8,.SVG_HowDo9{fill:none;stroke:#fff;stroke-miterlimit:10;}.SVG_HowDo5{stroke-width:3.47509px;}.SVG_HowDo6,.SVG_HowDo7{fill:#fff;}.SVG_HowDo7{opacity:0.5;}.SVG_HowDo8{stroke-width:1.62353px;}.SVG_HowDo9{stroke-width:1.94824px;}.SVG_HowDo10{stroke-width:2.81853px;}</style>
    </defs>
    <circle class="SVG_HowDo1" cx="73.42107" cy="73.42107" r="73.42107" />
    <circle class="SVG_HowDo2" cx="194.82202" cy="73.42107" r="73.42107" />
    <circle class="SVG_HowDo3" cx="316.22296" cy="73.42107" r="73.42107" />
    <circle class="SVG_HowDo4" cx="437.62392" cy="73.42107" r="73.42107" />
    <g id="Search_icon" data-name="Search icon">
        <circle class="SVG_HowDo5" cx="67.39557" cy="67.43383" r="17.99867" />
        <path class="SVG_HowDo6" d="M68.59314,56.56c2.7008.61757,8.37036,2.64213,8.63094,8.7821a1.33744,1.33744,0,0,0,1.3438,1.266h0a1.346,1.346,0,0,0,1.34431-1.43191c-.18807-2.94373-1.64428-9.54578-10.75294-11.29726a1.35151,1.35151,0,0,0-1.55773.95746l-.01246.04427A1.349,1.349,0,0,0,68.59314,56.56Z" />
        <rect class="SVG_HowDo6" x="87.27749" y="80.08004" width="4.8038" height="19.12219" rx="0.61139" transform="translate(-37.11937 89.66819) rotate(-45)" />
    </g>
    <g id="Chess">
        <path class="SVG_HowDo7" d="M193.27678,98.25045s5.56775-8.384,3.50969-9.7974c0,0,.15429-3.70547-2.13611-3.62907,0,0-2.6339-22.88942,6.05661-30.23947s7.9265-4.623,7.9265-4.623-7.92665,9.9556-9.08222,14.23408-.54436,20.7048-.54436,20.7048,6.79973,1.75723,0,13.44665Z" />
        <path class="SVG_HowDo7" d="M179.47755,68.05277s2.17823,17.133-5.14061,24.20016v5.99752h4.26932V92.25293s4.13863-2.52125,3.37625-24.20016Z" />
        <g id="Torre_traco" data-name="Torre traco">
            <polyline class="SVG_HowDo8" points="181.205 98.347 172.152 98.347 172.152 92.082 192.513 92.082" />
            <path class="SVG_HowDo8" d="M172.381,91.66191s5.82561-2.54034,5.82561-24.20016" />
            <polyline class="SVG_HowDo8" points="192.704 67.462 173.756 67.462 173.756 52.277 178.455 52.277 178.455 56.021 184.109 56.021 184.109 52.277 188.998 52.277 188.989 56.078 194.681 56.045 194.681 52.277 197.99 52.277" />
            <line class="SVG_HowDo8" x1="184.26618" y1="98.34704" x2="188.96487" y2="98.34704" />
        </g>
        <g id="Cavalo_traco" data-name="Cavalo traco">
            <polyline class="SVG_HowDo8" points="191.94 98.347 218.948 98.33 222.252 98.328" />
            <path class="SVG_HowDo8" d="M221.10457,98.32794a10.94777,10.94777,0,0,1-4.92789-9.34008" />
            <path class="SVG_HowDo8" d="M192.18587,98.25045a10.94779,10.94779,0,0,0,4.92789-9.34008" />
            <line class="SVG_HowDo9" x1="193.74029" y1="88.45305" x2="218.48926" y2="88.45305" />
            <path class="SVG_HowDo8" d="M215.89161,88.26205l2.97966-3.43807-9.85579-17.68693a7.55884,7.55884,0,0,1,8.366,2.36844l2.78865-3.13246-.1528-2.97965-1.45163-1.45163-.84042-.84042" />
            <path class="SVG_HowDo8" d="M213.94337,56.05884s-2.33024-3.82008-6.11211-3.01786l1.18422-4.54589s-13.90835,6.22672-14.36512,19.82618V84.824s2.29369.22921,2.14089,3.05606" />
            <line class="SVG_HowDo8" x1="214.78379" y1="57.05205" x2="216.80843" y2="59.86936" />
            <line class="SVG_HowDo8" x1="198.49118" y1="80.2972" x2="194.88121" y2="80.2972" />
            <line class="SVG_HowDo8" x1="198.49118" y1="76.80183" x2="194.88121" y2="76.80183" />
            <line class="SVG_HowDo8" x1="198.49118" y1="73.19186" x2="194.88121" y2="73.19186" />
            <line class="SVG_HowDo8" x1="198.49118" y1="69.8684" x2="194.88121" y2="69.8684" />
            <line class="SVG_HowDo8" x1="198.49118" y1="67.03199" x2="194.88121" y2="67.03199" />
            <line class="SVG_HowDo8" x1="199.00689" y1="64.19559" x2="195.39692" y2="64.19559" />
            <line class="SVG_HowDo8" x1="199.45097" y1="61.63137" x2="195.841" y2="61.63137" />
            <line class="SVG_HowDo8" x1="200.39644" y1="61.63137" x2="196.78647" y2="61.63137" />
            <line class="SVG_HowDo8" x1="201.35623" y1="58.73766" x2="197.74626" y2="58.73766" />
        </g>
    </g>
    <g id="Cog">
        <polyline class="SVG_HowDo10" points="298.551 65.834 297.742 67.142 289.846 70.748 289.846 75.784 297.369 78.892 298.986 82.809 295.753 90.457 299.297 93.814 307.068 90.643 310.799 92.135 313.845 100.031 319.068 100.031 321.928 92.446 325.72 90.581 333.243 93.752 336.849 90.767 333.865 82.561 334.487 80.633" />
        <polyline class="SVG_HowDo10" points="298.162 61.282 295.753 56.121 299.338 52.593 307.089 56.033 310.467 54.562 313.845 46.811 318.85 46.811 322.156 54.272 325.658 55.639 333.451 52.935 336.849 56.386 333.782 63.846 335.357 67.245 342.901 70.561 342.901 75.701 339.834 76.944" />
        <path class="SVG_HowDo6" d="M325.93364,74.41145a9.51793,9.51793,0,0,1-14.0997,7.18731l-.26775.17615-1.28243,2.21957a12.37033,12.37033,0,0,0,18.50363-9.47379ZM316.481,63.77152a9.52642,9.52642,0,0,1,8.58244,5.394l2.46268-1.44453A12.369,12.369,0,1,0,306.33076,80.3586l2.39224-1.55373a9.521,9.521,0,0,1,7.758-15.03335Z" />
    </g>
    <g id="REsult">
        <rect class="SVG_HowDo6" x="414.50361" y="90.80227" width="5.67716" height="1.60197" rx="0.29259" />
        <rect class="SVG_HowDo6" x="411.13805" y="94.76503" width="56.73651" height="1.60197" rx="0.29259" />
        <rect class="SVG_HowDo6" x="418.52259" y="73.04004" width="6.43599" height="1.60197" rx="0.29259" />
        <rect class="SVG_HowDo6" x="427.31938" y="76.49694" width="6.43599" height="1.60197" rx="0.29259" />
        <rect class="SVG_HowDo6" x="436.31994" y="69.09835" width="6.43599" height="1.60197" rx="0.29259" />
        <rect class="SVG_HowDo6" x="445.39778" y="64.18002" width="6.43599" height="1.60197" rx="0.29259" />
        <rect class="SVG_HowDo6" x="454.53183" y="58.1656" width="6.43599" height="1.60197" rx="0.29259" />
        <rect class="SVG_HowDo6" x="423.3004" y="90.80227" width="5.67716" height="1.60197" rx="0.29259" />
        <rect class="SVG_HowDo6" x="432.29393" y="90.80227" width="5.67716" height="1.60197" rx="0.29259" />
        <rect class="SVG_HowDo6" x="441.25935" y="90.80227" width="5.67716" height="1.60197" rx="0.29259" />
        <rect class="SVG_HowDo6" x="450.28099" y="90.80227" width="5.67716" height="1.60197" rx="0.29259" />
        <rect class="SVG_HowDo6" x="459.30964" y="90.80227" width="5.67716" height="1.60197" rx="0.29259" />
        <rect class="SVG_HowDo6" x="418.52259" y="73.04005" width="1.65818" height="19.36419" rx="0.30286" />
        <rect class="SVG_HowDo6" x="423.3004" y="73.04005" width="1.65818" height="19.36419" rx="0.30286" />
        <rect class="SVG_HowDo6" x="427.31938" y="76.49694" width="1.65818" height="15.9073" rx="0.30286" />
        <rect class="SVG_HowDo6" x="432.09719" y="76.49694" width="1.65818" height="15.9073" rx="0.30286" />
        <rect class="SVG_HowDo6" x="436.31994" y="69.17537" width="1.65818" height="23.22888" rx="0.30286" />
        <rect class="SVG_HowDo6" x="441.11089" y="69.17537" width="1.65818" height="23.22888" rx="0.30286" />
        <rect class="SVG_HowDo6" x="445.39778" y="64.18002" width="1.65818" height="28.14721" rx="0.30286" />
        <rect class="SVG_HowDo6" x="450.12244" y="64.18002" width="1.65818" height="28.14721" rx="0.30286" />
        <rect class="SVG_HowDo6" x="454.29997" y="58.1656" width="1.65818" height="34.16163" rx="0.30286" />
        <rect class="SVG_HowDo6" x="459.30964" y="58.24261" width="1.65818" height="34.16163" rx="0.30286" />
        <rect class="SVG_HowDo6" x="411.13806" y="55.54455" width="1.65818" height="40.82246" rx="0.30286" />
        <polygon class="SVG_HowDo6" points="467.875 92.342 468.985 95.566 467.875 98.79 473.072 95.566 467.875 92.342" />
        <polygon class="SVG_HowDo6" points="408.743 55.545 411.967 54.434 415.191 55.545 411.967 50.347 408.743 55.545" />
        <polygon class="SVG_HowDo6" points="453.723 50.836 457.057 51.552 459.244 54.168 459.169 48.052 453.723 50.836" />
        <path class="SVG_HowDo6" d="M419.52315,66.78523c4.04249.134,22.47728-.09542,35.68374-14.36032a.78146.78146,0,0,1,1.06962-.07977l.1346.11025a.77891.77891,0,0,1,.09254,1.12078c-2.53979,2.85807-14.40349,14.67649-36.99864,14.77519a.78552.78552,0,0,1-.78569-.7846h0A.7793.7793,0,0,1,419.52315,66.78523Z" />
    </g>
</svg>