<svg id="Layer_1" data-name="Layer 1" xmlns="http://www.w3.org/2000/svg" viewBox="0 0 300 300">
    <defs>
        <style>
            .ShareIconClass-2{opacity:0.8;}
            .ShareIconClass-1{opacity:0.7;}
            .ShareIconClass-3{opacity:0.6;}
            .ShareIconClass-4{opacity:0.9;}</style>
    </defs>
    <circle class="ShareIconClass-1" cx="64.50877" cy="150.3918" r="63.74613"/>
    <circle class="ShareIconClass-2" cx="234.63603" cy="64.90415" r="63.74613"/>
    <circle class="ShareIconClass-3" cx="234.63603" cy="235.62691" r="63.74613"/>
    <path class="ShareIconClass-4" d="M190.45217,189.6l-62.18826-31.06109-.52751-.13925a63.51106,63.51106,0,0,1-17.16989,36.037c-.05244.05543-.10531.11031-.15789.16561-.44494.46184-.89344.91951-1.35194,1.36773-.1435.14189-.281.29025-.42582.43075l62.75507,31.19889c-.0048.03714-.00758.07449-.01224.11163h.023a63.55706,63.55706,0,0,1,19.23095-38.17693v-.09689C190.57028,189.49273,190.50934,189.54441,190.45217,189.6Z"/>
    <path class="ShareIconClass-4" d="M171.45611,73.28718c-.02594-.00487-.052-.00883-.07783-.01488.00292.02323.00466.04681.00765.07L108.972,104.516v.41351a63.61717,63.61717,0,0,1,18.37236,37.85065l.59657-.2159L190.45217,111.342l.28573-.24017A63.56346,63.56346,0,0,1,171.45611,73.28718Z"/>
</svg>