<svg id="Isolation_Mode" data-name="Isolation Mode" xmlns="http://www.w3.org/2000/svg" viewBox="0 0 333 246">
    <path  d="M146.15963,0V15.50249Q76.81278,55.41121,60.55336,116.70193q17.59257-11.43747,31.997-11.45211,24.01346,0,40.54983,19.39521,16.52938,19.39032,16.53776,47.44648,0,31.02662-21.73782,52.08006-21.73642,21.03323-53.47531,21.05136-31.74867,0-53.086-26.78021Q-.01046,191.65833,0,151.79916,0,95.631,42.94405,51.14665,85.89369,6.663,146.15963,0ZM328.07924,0V15.50249q-69.3636,39.90872-85.61883,101.19944,17.59257-11.43747,32.26769-11.45211,23.75184,0,40.28612,19.39521,16.53567,19.39032,16.52521,47.44648,0,31.02662-21.60527,52.08006Q288.33167,245.2048,256.59,245.22293q-31.99143,0-53.20464-26.78021-21.20484-26.78439-21.2146-66.64356,0-56.16811,42.81848-100.65251Q267.79655,6.663,328.07924,0Z"/>
</svg>